<svg xmlns="http://www.w3.org/2000/svg" viewBox="0 0 150.41 25.55"><defs><style>.cls-1{fill:#00488f;}.cls-2{fill:#014890;}.cls-3{fill:#004890;}</style></defs><title>Zasób 6logo</title><g id="Warstwa_2" data-name="Warstwa 2"><g id="Layer_1" data-name="Layer 1"><path class="cls-1" d="M38.07,25H23.82a.62.62,0,0,1-.58-.3Q16.64,15.61,10,6.49a1,1,0,0,0-.35-.33V25H0V.28H14.85a.67.67,0,0,1,.61.31Q22,9.53,28.54,18.47a.83.83,0,0,0,.28.26,28.2,28.2,0,0,0,.08-3V.34H38V25.06Z"/><path class="cls-2" d="M113.77.31h10.75V11.23c.18-.14.31-.22.42-.31L136.65.51a.8.8,0,0,1,.47-.21h12.13L136.12,11.15,150.41,25H137.54a.88.88,0,0,1-.57-.24q-6-6.3-12-12.62c-.1-.11-.22-.2-.41-.38V25H113.76V.31Z"/><path class="cls-2" d="M89.26,17.37c.17,1.88,1.45,2.7,3,3.1a11.84,11.84,0,0,0,6.51-.14,6.35,6.35,0,0,0,1.69-.82,1.38,1.38,0,0,0,.05-2.33,5.83,5.83,0,0,0-2.85-1.24c-2-.38-4-.72-6.08-1a55.58,55.58,0,0,1-6.87-1.45,12.29,12.29,0,0,1-3.57-1.69,4.73,4.73,0,0,1-2-4.54c.2-2.42,1.71-3.8,3.68-4.87A18.08,18.08,0,0,1,88.58.57,45.52,45.52,0,0,1,98.9.11,24.84,24.84,0,0,1,106,1.4a9.34,9.34,0,0,1,3.93,2.44,5,5,0,0,1,1.21,4H100.4a5.83,5.83,0,0,0-.12-.72,2.63,2.63,0,0,0-1.71-1.66,8.59,8.59,0,0,0-3.9-.54,5.89,5.89,0,0,0-3,.82,4,4,0,0,0-.93.72,1,1,0,0,0,0,1.47l.16.13a6.87,6.87,0,0,0,1.76,1,23.09,23.09,0,0,0,4.64,1,77.86,77.86,0,0,1,8.86,1.52,11.08,11.08,0,0,1,4.77,2.37,5.15,5.15,0,0,1,.46,7.23,10,10,0,0,1-4.07,2.66,25.74,25.74,0,0,1-7.12,1.54,53.87,53.87,0,0,1-8.26.12,26.89,26.89,0,0,1-7.17-1.09,10.12,10.12,0,0,1-4.87-3,6,6,0,0,1-1.34-3.95H89.26Z"/><path class="cls-3" d="M81.93,25H70.22a.52.52,0,0,1-.54-.33c-.78-1.45-1.58-2.89-2.39-4.4H52.17a.59.59,0,0,0-.6.35l-2.17,4a.55.55,0,0,1-.57.35H38.41l1.52-2.48L53.49.59A.54.54,0,0,1,54,.28H66.39a.48.48,0,0,1,.47.25q7.45,12.12,14.91,24.23ZM59.74,5.22H59.6L54.5,15.47H64.7Z"/></g></g></svg>