<svg xmlns="http://www.w3.org/2000/svg" viewBox="0 0 245.8 113.36"><title>logo ezd black</title><g id="Layer_2" data-name="Layer 2"><g id="Layer_1-2" data-name="Layer 1"><path d="M29.09,19.76H18.74V1.2H29.09V3.12H20.9v6h7.69V11H20.9v6.83h8.19Z"/><path d="M35,19.76H32.88V0H35Z"/><path d="M45.34,20a6.39,6.39,0,0,1-4.87-1.88,7.27,7.27,0,0,1-1.78-5.22,8.06,8.06,0,0,1,1.66-5.34,5.5,5.5,0,0,1,4.45-2,5.25,5.25,0,0,1,4.14,1.72,6.59,6.59,0,0,1,1.52,4.54v1.33H40.87a5.52,5.52,0,0,0,1.24,3.72,4.28,4.28,0,0,0,3.31,1.27,11.2,11.2,0,0,0,4.44-.94v1.88a11.14,11.14,0,0,1-2.11.69A11.87,11.87,0,0,1,45.34,20ZM44.77,7.36A3.44,3.44,0,0,0,42.1,8.45a5,5,0,0,0-1.17,3H48.2a4.63,4.63,0,0,0-.89-3.05A3.13,3.13,0,0,0,44.77,7.36Z"/><path d="M56.13,12.64a24.81,24.81,0,0,1,1.66-2l4.49-4.76h2.5l-5.64,5.93,6,8H62.63l-4.91-6.58-1.59,1.37v5.21H54V0h2.08V10.48q0,.7-.1,2.16Z"/><path d="M72.19,18.27a6.86,6.86,0,0,0,1.08-.08,7.07,7.07,0,0,0,.83-.17v1.61a3.85,3.85,0,0,1-1,.27,7.58,7.58,0,0,1-1.2.11q-4,0-4-4.25V7.48h-2v-1l2-.88.89-3H70V5.85h4V7.48H70v8.19a2.82,2.82,0,0,0,.6,1.93A2.07,2.07,0,0,0,72.19,18.27Z"/><path d="M83.22,5.59a8.25,8.25,0,0,1,1.66.15l-.29,2a7.17,7.17,0,0,0-1.52-.19,3.71,3.71,0,0,0-2.89,1.37A5,5,0,0,0,79,12.29v7.46H76.87V5.85h1.74l.24,2.58H79a6.12,6.12,0,0,1,1.87-2.09A4.2,4.2,0,0,1,83.22,5.59Z"/><path d="M99.5,12.79a7.68,7.68,0,0,1-1.71,5.31A6,6,0,0,1,93,20a6.27,6.27,0,0,1-3.31-.88,5.78,5.78,0,0,1-2.23-2.51,8.76,8.76,0,0,1-.79-3.83,7.67,7.67,0,0,1,1.7-5.3,6,6,0,0,1,4.72-1.9,5.89,5.89,0,0,1,4.64,1.94A7.64,7.64,0,0,1,99.5,12.79Zm-10.6,0A6.6,6.6,0,0,0,90,16.85a4.23,4.23,0,0,0,6.28,0,6.57,6.57,0,0,0,1.07-4.07,6.47,6.47,0,0,0-1.07-4,3.77,3.77,0,0,0-3.17-1.38A3.71,3.71,0,0,0,90,8.74,6.54,6.54,0,0,0,88.9,12.79Z"/><path d="M112.71,19.76v-9a3.63,3.63,0,0,0-.77-2.54,3.15,3.15,0,0,0-2.42-.84,4,4,0,0,0-3.2,1.18,6,6,0,0,0-1,3.9v7.3h-2.11V5.85h1.71l.34,1.9h.1a4.3,4.3,0,0,1,1.82-1.59,5.9,5.9,0,0,1,2.6-.56,5.29,5.29,0,0,1,3.78,1.21,5.16,5.16,0,0,1,1.27,3.88v9.08Z"/><path d="M119,2.07A1.4,1.4,0,0,1,119.33,1a1.32,1.32,0,0,1,1.76,0,1.38,1.38,0,0,1,.37,1.05,1.4,1.4,0,0,1-.37,1.06,1.29,1.29,0,0,1-1.76,0A1.42,1.42,0,0,1,119,2.07Zm2.29,17.68h-2.11V5.85h2.11Z"/><path d="M131.29,20a5.94,5.94,0,0,1-4.68-1.86A7.64,7.64,0,0,1,125,12.89a7.88,7.88,0,0,1,1.68-5.4,6.06,6.06,0,0,1,4.79-1.9,9.5,9.5,0,0,1,2,.22,6.6,6.6,0,0,1,1.57.51l-.65,1.79a9.93,9.93,0,0,0-1.52-.46,6.81,6.81,0,0,0-1.46-.18q-4.24,0-4.24,5.41a6.44,6.44,0,0,0,1,3.94,3.6,3.6,0,0,0,3.07,1.37,9.37,9.37,0,0,0,3.57-.75v1.87A7.6,7.6,0,0,1,131.29,20Z"/><path d="M147,19.76H136.91V18.32L144.5,7.48h-7.12V5.85h9.43V7.48l-7.49,10.64H147Z"/><path d="M159.79,19.76v-9A3.63,3.63,0,0,0,159,8.22a3.15,3.15,0,0,0-2.42-.84,4,4,0,0,0-3.2,1.18,6,6,0,0,0-1,3.9v7.3h-2.11V5.85H152l.34,1.9h.1a4.3,4.3,0,0,1,1.82-1.59,5.9,5.9,0,0,1,2.6-.56,5.29,5.29,0,0,1,3.78,1.21,5.16,5.16,0,0,1,1.27,3.88v9.08Z"/><path d="M172.1,20a6.39,6.39,0,0,1-4.87-1.88,7.27,7.27,0,0,1-1.78-5.22,8.06,8.06,0,0,1,1.66-5.34,5.5,5.5,0,0,1,4.45-2,5.25,5.25,0,0,1,4.14,1.72,6.59,6.59,0,0,1,1.52,4.54v1.33h-9.58a5.52,5.52,0,0,0,1.24,3.72,4.28,4.28,0,0,0,3.31,1.27,11.2,11.2,0,0,0,4.44-.94v1.88a11.14,11.14,0,0,1-2.11.69A11.87,11.87,0,0,1,172.1,20Zm-.57-12.66a3.44,3.44,0,0,0-2.67,1.09,5,5,0,0,0-1.17,3H175a4.63,4.63,0,0,0-.89-3.05A3.13,3.13,0,0,0,171.53,7.36Z"/><path d="M30,51H17.23V49.27l9.85-14.93H17.54V32.4H29.71v1.69L19.86,49H30Z"/><path d="M41.82,51l-.42-2h-.1a5.86,5.86,0,0,1-2.08,1.77,6.33,6.33,0,0,1-2.58.46,4.65,4.65,0,0,1-3.24-1.07,3.89,3.89,0,0,1-1.17-3q0-4.22,6.74-4.42l2.36-.08v-.86a3.53,3.53,0,0,0-.7-2.42,2.9,2.9,0,0,0-2.25-.78,9.18,9.18,0,0,0-3.94,1.07L33.79,38A9.89,9.89,0,0,1,36,37.13a9.77,9.77,0,0,1,2.46-.32,5.3,5.3,0,0,1,3.69,1.1,4.61,4.61,0,0,1,1.2,3.54V51Zm-4.76-1.49a4.28,4.28,0,0,0,3.09-1.08,4,4,0,0,0,1.12-3V44.12l-2.11.09a7.66,7.66,0,0,0-3.62.78,2.35,2.35,0,0,0-1.11,2.15,2.17,2.17,0,0,0,.69,1.74A2.87,2.87,0,0,0,37.06,49.47Z"/><path d="M54.07,36.79a8.25,8.25,0,0,1,1.66.15l-.29,2a7.17,7.17,0,0,0-1.52-.19A3.71,3.71,0,0,0,51,40.08a5,5,0,0,0-1.2,3.42V51H47.73V37h1.74l.24,2.58h.1a6.12,6.12,0,0,1,1.87-2.09A4.2,4.2,0,0,1,54.07,36.79Z"/><path d="M67.24,51H57.15V49.53l7.59-10.84H57.62V37H67v1.64L59.56,49.32h7.68Z"/><path d="M79.06,51l-.42-2h-.1a5.86,5.86,0,0,1-2.08,1.77,6.33,6.33,0,0,1-2.58.46,4.65,4.65,0,0,1-3.24-1.07,3.89,3.89,0,0,1-1.17-3q0-4.22,6.74-4.42l2.36-.08v-.86a3.53,3.53,0,0,0-.7-2.42,2.9,2.9,0,0,0-2.25-.78,9.18,9.18,0,0,0-3.94,1.07L71,38a9.89,9.89,0,0,1,2.25-.88,9.77,9.77,0,0,1,2.46-.32,5.3,5.3,0,0,1,3.69,1.1,4.61,4.61,0,0,1,1.2,3.54V51ZM74.3,49.47a4.28,4.28,0,0,0,3.09-1.08,4,4,0,0,0,1.12-3V44.12l-2.11.09a7.66,7.66,0,0,0-3.62.78,2.35,2.35,0,0,0-1.11,2.15,2.17,2.17,0,0,0,.69,1.74A2.87,2.87,0,0,0,74.3,49.47ZM78.84,54A1.05,1.05,0,0,0,80,55.17,5.45,5.45,0,0,0,81.27,55v1.38a5.94,5.94,0,0,1-1.59.23q-2.63,0-2.63-2.39a3.21,3.21,0,0,1,.55-1.75A5.74,5.74,0,0,1,79.06,51h1.52a8.7,8.7,0,0,0-1.3,1.53A2.73,2.73,0,0,0,78.84,54Z"/><path d="M94.43,49.09h-.11A5,5,0,0,1,90,51.21a5.17,5.17,0,0,1-4.25-1.87A8.22,8.22,0,0,1,84.19,44a8.35,8.35,0,0,1,1.52-5.34A5.13,5.13,0,0,1,90,36.79a5.06,5.06,0,0,1,4.34,2.06h.17l-.09-1-.05-1V31.21h2.11V51H94.71Zm-4.21.36a3.84,3.84,0,0,0,3.13-1.17,5.93,5.93,0,0,0,1-3.79V44a7,7,0,0,0-1-4.22,3.74,3.74,0,0,0-3.14-1.26A3.23,3.23,0,0,0,87.35,40a7.17,7.17,0,0,0-1,4.07,6.87,6.87,0,0,0,1,4A3.31,3.31,0,0,0,90.22,49.45Z"/><path d="M109.79,51H99.7V49.53l7.59-10.84h-7.12V37h9.43v1.64l-7.49,10.64h7.68Z"/><path d="M121.61,51l-.42-2h-.1A5.86,5.86,0,0,1,119,50.75a6.33,6.33,0,0,1-2.58.46,4.65,4.65,0,0,1-3.24-1.07,3.89,3.89,0,0,1-1.17-3q0-4.22,6.74-4.42l2.36-.08v-.86a3.53,3.53,0,0,0-.7-2.42,2.9,2.9,0,0,0-2.25-.78,9.18,9.18,0,0,0-3.94,1.07L113.58,38a9.89,9.89,0,0,1,2.25-.88,9.77,9.77,0,0,1,2.46-.32,5.3,5.3,0,0,1,3.69,1.1,4.61,4.61,0,0,1,1.2,3.54V51Zm-4.76-1.49a4.28,4.28,0,0,0,3.09-1.08,4,4,0,0,0,1.12-3V44.12l-2.11.09a7.66,7.66,0,0,0-3.62.78,2.35,2.35,0,0,0-1.11,2.15,2.17,2.17,0,0,0,.69,1.74A2.87,2.87,0,0,0,116.85,49.47Z"/><path d="M137,51V42a3.63,3.63,0,0,0-.77-2.54,3.15,3.15,0,0,0-2.42-.84,4,4,0,0,0-3.2,1.18,6,6,0,0,0-1,3.9V51h-2.11V37h1.71l.34,1.9h.1a4.3,4.3,0,0,1,1.82-1.59,5.9,5.9,0,0,1,2.6-.56A5.29,5.29,0,0,1,137.87,38a5.16,5.16,0,0,1,1.27,3.88V51Z"/><path d="M143.3,33.28a1.4,1.4,0,0,1,.36-1.06,1.32,1.32,0,0,1,1.76,0,1.38,1.38,0,0,1,.37,1.05,1.4,1.4,0,0,1-.37,1.06,1.29,1.29,0,0,1-1.76,0A1.42,1.42,0,0,1,143.3,33.28ZM145.58,51h-2.11V37h2.11Z"/><path d="M155.93,51.21a6.39,6.39,0,0,1-4.87-1.88,7.27,7.27,0,0,1-1.78-5.22,8.06,8.06,0,0,1,1.66-5.34,5.5,5.5,0,0,1,4.45-2,5.25,5.25,0,0,1,4.14,1.72A6.59,6.59,0,0,1,161,43.05v1.33h-9.58a5.52,5.52,0,0,0,1.24,3.72A4.28,4.28,0,0,0,156,49.37a11.2,11.2,0,0,0,4.44-.94v1.88a11.14,11.14,0,0,1-2.11.69A11.87,11.87,0,0,1,155.93,51.21Zm-.57-12.66a3.44,3.44,0,0,0-2.67,1.09,5,5,0,0,0-1.17,3h7.27a4.63,4.63,0,0,0-.89-3.05A3.13,3.13,0,0,0,155.36,38.56Z"/><path d="M33.93,72.7q0,4.58-2.61,7t-7.54,2.44H18.53V63.6h5.83A9.81,9.81,0,0,1,31.41,66,8.83,8.83,0,0,1,33.93,72.7Zm-4.09.1q0-6-5.28-6H22.46V78.91h1.69Q29.84,78.91,29.84,72.8Z"/><path d="M50.37,75a7.63,7.63,0,0,1-1.83,5.42,6.63,6.63,0,0,1-5.09,2,7.12,7.12,0,0,1-3.61-.9,6,6,0,0,1-2.4-2.57A8.64,8.64,0,0,1,36.6,75a7.59,7.59,0,0,1,1.82-5.41,6.67,6.67,0,0,1,5.1-1.93,7.16,7.16,0,0,1,3.61.89,5.93,5.93,0,0,1,2.4,2.55A8.56,8.56,0,0,1,50.37,75Zm-9.81,0a6,6,0,0,0,.69,3.19A2.47,2.47,0,0,0,43.5,79.3a2.43,2.43,0,0,0,2.23-1.07A6,6,0,0,0,46.41,75a5.86,5.86,0,0,0-.69-3.16,2.91,2.91,0,0,0-4.48,0A5.86,5.86,0,0,0,40.55,75Z"/><path d="M57.29,74.44,59,72.28l4-4.32h4.37l-5.64,6.16,6,8H63.19L59.1,76.41l-1.66,1.33v4.42H53.57V62.41h3.87v8.81l-.2,3.22Z"/><path d="M79.74,82.16l-.52-1.82H79a4.09,4.09,0,0,1-1.76,1.53,6,6,0,0,1-2.6.54,5,5,0,0,1-3.77-1.34,5.39,5.39,0,0,1-1.27-3.85V68h3.87v8.29a4,4,0,0,0,.55,2.3,2,2,0,0,0,1.74.77,2.62,2.62,0,0,0,2.35-1.09,6.73,6.73,0,0,0,.72-3.6V68h3.87V82.16Z"/><path d="M99.48,82.16H95.61V73.87a4.19,4.19,0,0,0-.51-2.3,1.81,1.81,0,0,0-1.62-.77,2.34,2.34,0,0,0-2.16,1.09,7.16,7.16,0,0,0-.67,3.59v6.68H86.78V68h3l.52,1.82h.22a3.93,3.93,0,0,1,1.65-1.53,5.36,5.36,0,0,1,2.48-.55q3.19,0,4.32,2.08h.34a3.83,3.83,0,0,1,1.68-1.54,5.61,5.61,0,0,1,2.51-.55,5,5,0,0,1,3.65,1.24,5.43,5.43,0,0,1,1.24,4v9.25h-3.88V73.87a4.19,4.19,0,0,0-.51-2.3,1.81,1.81,0,0,0-1.62-.77,2.42,2.42,0,0,0-2.13,1,5.77,5.77,0,0,0-.7,3.22Z"/><path d="M118.73,82.41a7.32,7.32,0,0,1-5.36-1.89,7.16,7.16,0,0,1-1.93-5.36,7.88,7.88,0,0,1,1.78-5.52,6.35,6.35,0,0,1,4.93-1.95,6.25,6.25,0,0,1,4.68,1.71,6.48,6.48,0,0,1,1.68,4.74V76h-9.15a3.73,3.73,0,0,0,1,2.58,3.44,3.44,0,0,0,2.56.93,10.65,10.65,0,0,0,2.42-.27,12.14,12.14,0,0,0,2.39-.85v3a9.09,9.09,0,0,1-2.17.76A13.69,13.69,0,0,1,118.73,82.41Zm-.55-12a2.46,2.46,0,0,0-1.93.78,3.61,3.61,0,0,0-.8,2.22h5.43a3.23,3.23,0,0,0-.75-2.22A2.54,2.54,0,0,0,118.18,70.45Z"/><path d="M140.77,82.16H136.9V73.87a4,4,0,0,0-.55-2.3,2,2,0,0,0-1.74-.77,2.62,2.62,0,0,0-2.35,1.09,6.73,6.73,0,0,0-.72,3.6v6.68h-3.87V68h3l.52,1.82h.22a4.09,4.09,0,0,1,1.78-1.56,6.07,6.07,0,0,1,2.58-.53A5,5,0,0,1,139.49,69a5.38,5.38,0,0,1,1.28,3.87Z"/><path d="M150.74,79.33a8.39,8.39,0,0,0,2.44-.44v2.88a8.69,8.69,0,0,1-3.55.65,4.35,4.35,0,0,1-3.38-1.17,5.11,5.11,0,0,1-1.06-3.52V70.87h-1.85V69.24l2.13-1.29,1.12-3H149v3h4v2.91h-4v6.84a1.51,1.51,0,0,0,.46,1.22A1.83,1.83,0,0,0,150.74,79.33Z"/><path d="M165.06,82.16l-.75-1.93h-.1a5.71,5.71,0,0,1-2,1.71,6.5,6.5,0,0,1-2.7.48,4.36,4.36,0,0,1-3.22-1.17,4.49,4.49,0,0,1-1.17-3.33,3.75,3.75,0,0,1,1.58-3.33,9.16,9.16,0,0,1,4.77-1.19l2.46-.08V72.7a1.93,1.93,0,0,0-2.21-2.16,10.07,10.07,0,0,0-4,1L156.42,69a11.54,11.54,0,0,1,5.43-1.28,6.77,6.77,0,0,1,4.38,1.24,4.6,4.6,0,0,1,1.52,3.78v9.46Zm-1.14-6.58-1.5.05a4.79,4.79,0,0,0-2.51.61,1.91,1.91,0,0,0-.83,1.7q0,1.64,1.88,1.64a3,3,0,0,0,2.15-.77,2.72,2.72,0,0,0,.81-2.06Z"/><path d="M177.51,82.41q-6.63,0-6.63-7.27a7.76,7.76,0,0,1,1.8-5.53,6.76,6.76,0,0,1,5.17-1.91,9.85,9.85,0,0,1,4.42,1l-1.14,3q-.91-.37-1.7-.6a5.48,5.48,0,0,0-1.57-.23q-3,0-3,4.29t3,4.16a6.89,6.89,0,0,0,2.07-.3,7.46,7.46,0,0,0,1.9-.93v3.31a6.23,6.23,0,0,1-1.9.83A10.66,10.66,0,0,1,177.51,82.41Z"/><path d="M184,88.41a9,9,0,0,1-2.55-.32V85a6.91,6.91,0,0,0,1.82.24,1.75,1.75,0,0,0,1.43-.55,2.48,2.48,0,0,0,.45-1.61V68H189V83.7a4.54,4.54,0,0,1-1.31,3.48A5.22,5.22,0,0,1,184,88.41Zm1-24.11q0-1.89,2.11-1.89t2.11,1.89a1.85,1.85,0,0,1-.53,1.4,2.22,2.22,0,0,1-1.58.5Q184.95,66.2,184.95,64.3Z"/><path d="M202.06,82.16l-.75-1.93h-.1a5.71,5.71,0,0,1-2,1.71,6.5,6.5,0,0,1-2.7.48,4.36,4.36,0,0,1-3.22-1.17,4.49,4.49,0,0,1-1.17-3.33,3.75,3.75,0,0,1,1.58-3.33,9.16,9.16,0,0,1,4.77-1.19l2.46-.08V72.7a1.93,1.93,0,0,0-2.21-2.16,10.07,10.07,0,0,0-4,1L193.43,69a11.54,11.54,0,0,1,5.43-1.28,6.77,6.77,0,0,1,4.38,1.24,4.6,4.6,0,0,1,1.52,3.78v9.46Zm-1.14-6.58-1.5.05a4.79,4.79,0,0,0-2.51.61,1.91,1.91,0,0,0-.83,1.7q0,1.64,1.88,1.64a3,3,0,0,0,2.15-.77,2.72,2.72,0,0,0,.81-2.06ZM202.51,85a1,1,0,0,0,.29.79,1.05,1.05,0,0,0,.73.25,5.08,5.08,0,0,0,1.46-.23v2.26a7.33,7.33,0,0,1-2,.29,3.26,3.26,0,0,1-2.3-.81,2.75,2.75,0,0,1-.87-2.11,2.91,2.91,0,0,1,.48-1.6,7.39,7.39,0,0,1,1.8-1.73h2.27A10.88,10.88,0,0,0,203,83.69,2.33,2.33,0,0,0,202.51,85Z"/><path d="M219.75,75v7.12h-3.94V63.6h5.41q3.78,0,5.6,1.38a5.49,5.49,0,0,1,.91,7.1,6,6,0,0,1-2.55,2q4.19,6.26,5.46,8.09h-4.37L221.84,75Zm0-3.2H221a4.86,4.86,0,0,0,2.75-.62,2.22,2.22,0,0,0,.89-2,2,2,0,0,0-.91-1.88,5.51,5.51,0,0,0-2.81-.56h-1.19Z"/><path d="M245.8,69.39A5.67,5.67,0,0,1,243.92,74a8,8,0,0,1-5.33,1.59h-1.69v6.6H233V63.6h5.93A7.89,7.89,0,0,1,244,65.05,5.3,5.3,0,0,1,245.8,69.39Zm-8.89,2.95h1.29a4.31,4.31,0,0,0,2.72-.72,2.51,2.51,0,0,0,.9-2.09,2.58,2.58,0,0,0-.75-2,3.54,3.54,0,0,0-2.37-.66h-1.79Z"/><path d="M18.53,94.8H24.3q3.95,0,5.73,1.12a3.91,3.91,0,0,1,1.78,3.57,4.51,4.51,0,0,1-.78,2.73A3.12,3.12,0,0,1,29,103.51v.13a4.08,4.08,0,0,1,2.54,1.47,4.78,4.78,0,0,1,.78,2.87,4.73,4.73,0,0,1-1.83,4,7.94,7.94,0,0,1-5,1.42H18.53Zm3.94,7.35h2.29a4.17,4.17,0,0,0,2.32-.5,1.85,1.85,0,0,0,.72-1.64A1.64,1.64,0,0,0,27,98.49,5,5,0,0,0,24.53,98H22.46Zm0,3.12v4.84H25a3.81,3.81,0,0,0,2.4-.62,2.29,2.29,0,0,0,.77-1.9q0-2.31-3.3-2.31Z"/><path d="M39.69,105.59H34.78v-2.78h4.91v-5h2.78v5h4.91v2.78H42.47v4.89H39.69Z"/><path d="M54.77,106.24v7.12H50.84V94.8h5.41q3.78,0,5.6,1.38a5.49,5.49,0,0,1,.91,7.1,6,6,0,0,1-2.55,2q4.19,6.26,5.46,8.09H61.3l-4.43-7.12Zm0-3.2H56a4.86,4.86,0,0,0,2.75-.62,2.22,2.22,0,0,0,.89-2,2,2,0,0,0-.91-1.88A5.51,5.51,0,0,0,56,98H54.77Z"/><path d="M2.87,113.29H0V0H2.87Z"/></g></g></svg>