<?xml version="1.0" encoding="UTF-8"?>
<svg width="387px" height="92px" viewBox="0 0 387 92" version="1.1" xmlns="http://www.w3.org/2000/svg" xmlns:xlink="http://www.w3.org/1999/xlink">
    <!-- Generator: Sketch 3.8.1 (29687) - http://www.bohemiancoding.com/sketch -->
    <title>Group</title>
    <desc>Created with Sketch.</desc>
    <defs></defs>
    <g id="Page-1" stroke="none" stroke-width="1" fill="none" fill-rule="evenodd">
        <g id="Group" fill="#000105">
            <path d="M131.847,9.069 C132.063,9.069 132.257,9.132 132.419,9.229 C132.557,9.308 132.691,9.428 132.832,9.575 C132.97,9.727 133.031,9.946 133.031,10.249 L133.031,33.767 L141.153,33.767 C141.46,33.767 141.689,33.829 141.852,33.955 C142.017,34.074 142.14,34.203 142.219,34.343 C142.332,34.503 142.385,34.701 142.385,34.91 L142.385,36.456 C142.385,36.707 142.332,36.916 142.219,37.074 C142.14,37.212 142.017,37.343 141.852,37.457 C141.689,37.583 141.46,37.644 141.153,37.644 L129.072,37.644 L129.072,10.249 C129.072,9.946 129.134,9.727 129.256,9.575 C129.379,9.428 129.51,9.308 129.648,9.229 C129.808,9.132 129.997,9.069 130.218,9.069 L131.847,9.069" id="Fill-35"></path>
            <path d="M157.644,12.942 L154.423,24.911 L160.913,24.911 L157.729,12.942 L157.644,12.942 L157.644,12.942 Z M159.357,9.069 C159.523,9.069 159.688,9.103 159.854,9.192 C159.985,9.238 160.117,9.337 160.258,9.473 C160.402,9.612 160.506,9.801 160.589,10.04 L167.937,36.339 C168.016,36.664 168.01,36.921 167.915,37.089 C167.823,37.27 167.704,37.402 167.572,37.482 C167.403,37.591 167.189,37.644 166.917,37.644 L165.034,37.644 C164.823,37.644 164.603,37.57 164.382,37.402 C164.168,37.24 163.999,36.992 163.896,36.664 L161.979,28.786 L153.406,28.786 L151.357,36.664 C151.248,36.992 151.092,37.24 150.89,37.402 C150.688,37.57 150.477,37.644 150.262,37.644 L148.342,37.644 C148.094,37.644 147.886,37.591 147.724,37.482 C147.589,37.402 147.467,37.27 147.356,37.089 C147.246,36.921 147.246,36.664 147.356,36.339 L154.79,10.04 C154.839,9.801 154.937,9.612 155.071,9.473 C155.213,9.337 155.351,9.238 155.481,9.192 C155.623,9.103 155.785,9.069 155.972,9.069 L159.357,9.069 L159.357,9.069 Z" id="Fill-36"></path>
            <path d="M177.425,33.81 L181.096,33.81 C182.488,33.81 183.615,33.406 184.473,32.604 C185.333,31.798 185.755,30.627 185.755,29.081 C185.755,28.149 185.623,27.39 185.369,26.781 C185.109,26.187 184.751,25.712 184.304,25.379 C183.856,25.042 183.324,24.813 182.712,24.684 C182.105,24.561 181.457,24.501 180.771,24.501 L177.425,24.501 L177.425,33.81 L177.425,33.81 Z M177.425,20.744 L180.036,20.744 C181.588,20.744 182.801,20.407 183.68,19.737 C184.549,19.072 184.98,18.117 184.98,16.862 C184.98,15.56 184.632,14.577 183.937,13.944 C183.238,13.307 182.157,12.983 180.691,12.983 L177.425,12.983 L177.425,20.744 L177.425,20.744 Z M180.691,9.069 C182.13,9.069 183.382,9.256 184.427,9.655 C185.477,10.055 186.331,10.597 186.998,11.286 C187.659,11.987 188.164,12.807 188.498,13.76 C188.811,14.715 188.976,15.747 188.976,16.862 C188.976,18.2 188.719,19.323 188.204,20.232 C187.69,21.147 187.105,21.842 186.45,22.339 C187.672,22.979 188.522,23.891 189,25.047 C189.475,26.209 189.717,27.522 189.717,28.995 C189.717,30.075 189.558,31.141 189.227,32.181 C188.896,33.213 188.385,34.141 187.69,34.956 C186.998,35.763 186.104,36.42 185.021,36.916 C183.934,37.402 182.62,37.644 181.096,37.644 L173.466,37.644 L173.466,9.069 L180.691,9.069 L180.691,9.069 Z" id="Fill-37"></path>
            <path d="M204.663,12.655 C203.279,12.655 202.178,13.098 201.363,13.968 C200.54,14.832 200.129,16.206 200.129,18.089 L200.129,28.664 C200.129,30.538 200.54,31.906 201.363,32.767 C202.178,33.624 203.279,34.049 204.663,34.049 C206.06,34.049 207.149,33.624 207.952,32.767 C208.757,31.906 209.155,30.538 209.155,28.664 L209.155,18.089 C209.155,16.206 208.757,14.832 207.952,13.968 C207.149,13.098 206.06,12.655 204.663,12.655 L204.663,12.655 Z M204.663,8.776 C206.194,8.776 207.489,9.027 208.564,9.514 C209.642,10.004 210.518,10.674 211.185,11.495 C211.846,12.321 212.336,13.307 212.654,14.436 C212.961,15.563 213.126,16.782 213.126,18.089 L213.126,28.664 C213.126,29.965 212.961,31.174 212.654,32.298 C212.336,33.413 211.846,34.398 211.185,35.234 C210.518,36.08 209.642,36.74 208.564,37.221 C207.489,37.689 206.194,37.935 204.663,37.935 C203.142,37.935 201.847,37.689 200.77,37.221 C199.691,36.74 198.815,36.08 198.133,35.234 C197.456,34.398 196.957,33.413 196.643,32.298 C196.336,31.174 196.174,29.965 196.174,28.664 L196.174,18.089 C196.174,16.782 196.336,15.563 196.643,14.436 C196.957,13.307 197.456,12.321 198.133,11.495 C198.815,10.674 199.691,10.004 200.77,9.514 C201.847,9.027 203.142,8.776 204.663,8.776 L204.663,8.776 Z" id="Fill-38"></path>
            <path d="M253.102,12.942 L249.871,24.911 L256.362,24.911 L253.184,12.942 L253.102,12.942 L253.102,12.942 Z M254.813,9.069 C254.978,9.069 255.144,9.103 255.312,9.192 C255.438,9.238 255.584,9.337 255.713,9.473 C255.854,9.612 255.958,9.801 256.044,10.04 L263.392,36.339 C263.474,36.664 263.462,36.921 263.37,37.089 C263.271,37.27 263.155,37.402 263.021,37.482 C262.861,37.591 262.638,37.644 262.372,37.644 L260.492,37.644 C260.269,37.644 260.058,37.57 259.837,37.402 C259.619,37.24 259.454,36.992 259.344,36.664 L257.434,28.786 L248.857,28.786 L246.813,36.664 C246.709,36.992 246.543,37.24 246.345,37.402 C246.143,37.57 245.928,37.644 245.711,37.644 L243.791,37.644 C243.546,37.644 243.344,37.591 243.182,37.482 C243.044,37.402 242.922,37.27 242.809,37.089 C242.701,36.921 242.701,36.664 242.809,36.339 L250.248,10.04 C250.291,9.801 250.386,9.612 250.526,9.473 C250.664,9.337 250.802,9.238 250.937,9.192 C251.074,9.103 251.24,9.069 251.424,9.069 L254.813,9.069 L254.813,9.069 Z" id="Fill-39"></path>
            <path d="M280.433,9.069 C280.732,9.069 280.953,9.132 281.108,9.247 C281.253,9.37 281.369,9.499 281.455,9.639 C281.556,9.801 281.611,9.988 281.611,10.212 L281.611,11.764 C281.611,12.005 281.556,12.208 281.455,12.367 C281.369,12.504 281.253,12.636 281.108,12.758 C280.953,12.878 280.732,12.942 280.433,12.942 L275.044,12.942 L275.044,36.456 C275.044,36.765 274.979,36.992 274.86,37.135 C274.734,37.283 274.606,37.402 274.468,37.482 C274.303,37.591 274.119,37.644 273.905,37.644 L272.264,37.644 C272.022,37.644 271.813,37.591 271.654,37.482 C271.52,37.402 271.389,37.283 271.269,37.135 C271.144,36.992 271.082,36.765 271.082,36.456 L271.082,12.942 L265.736,12.942 C265.431,12.942 265.207,12.878 265.063,12.758 C264.903,12.636 264.787,12.504 264.714,12.367 C264.604,12.208 264.552,12.018 264.552,11.8 L264.552,10.249 C264.552,10.031 264.604,9.844 264.714,9.678 C264.787,9.542 264.903,9.401 265.063,9.272 C265.207,9.133 265.431,9.069 265.736,9.069 L280.433,9.069" id="Fill-40"></path>
            <path d="M294.13,12.655 C292.74,12.655 291.641,13.098 290.823,13.968 C290.006,14.832 289.599,16.206 289.599,18.089 L289.599,28.664 C289.599,30.538 290.006,31.906 290.823,32.767 C291.641,33.624 292.74,34.049 294.13,34.049 C295.52,34.049 296.613,33.624 297.418,32.767 C298.217,31.906 298.618,30.538 298.618,28.664 L298.618,18.089 C298.618,16.206 298.217,14.832 297.418,13.968 C296.613,13.098 295.52,12.655 294.13,12.655 L294.13,12.655 Z M294.13,8.776 C295.651,8.776 296.953,9.027 298.027,9.514 C299.104,10.004 299.975,10.674 300.639,11.495 C301.313,12.321 301.799,13.307 302.114,14.436 C302.424,15.563 302.58,16.782 302.58,18.089 L302.58,28.664 C302.58,29.965 302.424,31.174 302.114,32.298 C301.799,33.413 301.313,34.398 300.639,35.234 C299.975,36.08 299.104,36.74 298.027,37.221 C296.953,37.689 295.651,37.935 294.13,37.935 C292.605,37.935 291.307,37.689 290.229,37.221 C289.154,36.74 288.282,36.08 287.597,35.234 C286.923,34.398 286.421,33.413 286.103,32.298 C285.79,31.174 285.634,29.965 285.634,28.664 L285.634,18.089 C285.634,16.782 285.79,15.563 286.103,14.436 C286.421,13.307 286.923,12.321 287.597,11.495 C288.282,10.674 289.154,10.004 290.229,9.514 C291.307,9.027 292.605,8.776 294.13,8.776 L294.13,8.776 Z" id="Fill-41"></path>
            <path d="M335.851,9.069 C336.067,9.069 336.267,9.132 336.466,9.229 C336.595,9.308 336.735,9.428 336.87,9.575 C337.005,9.727 337.072,9.946 337.072,10.249 L337.072,36.456 C337.072,36.765 337.005,36.992 336.87,37.135 C336.735,37.283 336.595,37.402 336.466,37.482 C336.294,37.591 336.104,37.644 335.896,37.644 L334.292,37.644 C334.054,37.644 333.852,37.591 333.686,37.482 C333.542,37.402 333.423,37.283 333.297,37.135 C333.178,36.992 333.113,36.765 333.113,36.456 L333.113,10.249 C333.113,9.946 333.178,9.727 333.297,9.575 C333.423,9.428 333.542,9.308 333.686,9.229 C333.852,9.132 334.035,9.069 334.255,9.069 L335.851,9.069" id="Fill-42"></path>
            <path d="M347.408,9.069 C347.619,9.069 347.818,9.132 347.978,9.229 C348.112,9.308 348.253,9.428 348.388,9.575 C348.522,9.727 348.59,9.946 348.59,10.249 L348.59,27.522 C348.59,28.777 348.676,29.821 348.854,30.661 C349.037,31.504 349.313,32.181 349.692,32.681 C350.074,33.186 350.546,33.535 351.106,33.744 C351.66,33.955 352.337,34.049 353.124,34.049 C353.807,34.049 354.422,33.955 354.982,33.744 C355.54,33.535 356.008,33.186 356.391,32.681 C356.773,32.181 357.062,31.504 357.27,30.661 C357.472,29.821 357.575,28.777 357.575,27.522 L357.575,10.249 C357.575,9.946 357.637,9.727 357.756,9.575 C357.882,9.428 358.011,9.308 358.148,9.229 C358.313,9.132 358.497,9.069 358.721,9.069 L360.353,9.069 C360.566,9.069 360.757,9.132 360.922,9.229 C361.054,9.308 361.191,9.428 361.332,9.575 C361.467,9.727 361.534,9.946 361.534,10.249 L361.534,27.32 C361.534,28.728 361.381,30.075 361.087,31.364 C360.781,32.644 360.294,33.767 359.611,34.748 C358.935,35.72 358.063,36.499 357.009,37.074 C355.943,37.644 354.646,37.935 353.124,37.935 C351.651,37.935 350.384,37.656 349.313,37.089 C348.231,36.542 347.347,35.767 346.655,34.808 C345.96,33.837 345.448,32.709 345.124,31.42 C344.793,30.128 344.628,28.758 344.628,27.32 L344.628,10.249 C344.628,9.946 344.692,9.727 344.814,9.575 C344.938,9.428 345.065,9.308 345.204,9.229 C345.369,9.132 345.559,9.069 345.773,9.069 L347.408,9.069" id="Fill-43"></path>
            <path d="M371.732,9.069 C371.897,9.069 372.048,9.103 372.186,9.192 C372.317,9.238 372.452,9.33 372.587,9.462 C372.725,9.575 372.868,9.749 373.003,9.967 L377.571,20.665 L382.103,9.967 C382.219,9.749 382.341,9.575 382.473,9.462 C382.61,9.33 382.739,9.238 382.883,9.192 C383.015,9.103 383.174,9.069 383.37,9.069 L385.696,9.069 C385.914,9.069 386.119,9.132 386.309,9.229 C386.449,9.308 386.578,9.428 386.716,9.575 C386.854,9.727 386.921,9.946 386.921,10.249 L386.921,36.456 C386.921,36.707 386.866,36.916 386.762,37.074 C386.683,37.212 386.554,37.343 386.395,37.457 C386.223,37.583 386.003,37.644 385.696,37.644 L384.19,37.644 C383.939,37.644 383.743,37.591 383.571,37.482 C383.412,37.402 383.269,37.283 383.146,37.135 C383.021,36.992 382.959,36.765 382.959,36.456 L383.37,16.292 L379.738,25.434 C379.573,25.817 379.398,26.052 379.206,26.157 C379.013,26.249 378.813,26.297 378.591,26.297 L376.757,26.297 C376.509,26.297 376.282,26.249 376.08,26.157 C375.875,26.052 375.694,25.817 375.522,25.434 L371.692,16.092 L372.1,36.456 C372.1,36.707 372.048,36.916 371.94,37.074 C371.854,37.212 371.741,37.343 371.592,37.457 C371.436,37.583 371.212,37.644 370.915,37.644 L369.316,37.644 C369.084,37.644 368.87,37.591 368.711,37.482 C368.576,37.402 368.447,37.283 368.325,37.135 C368.202,36.992 368.138,36.765 368.138,36.456 L368.138,10.249 C368.138,10.031 368.193,9.844 368.307,9.678 C368.383,9.542 368.496,9.401 368.655,9.272 C368.796,9.133 369.026,9.069 369.316,9.069 L371.732,9.069" id="Fill-44"></path>
            <path d="M143.486,54.547 C143.79,54.547 144.013,54.611 144.157,54.73 C144.304,54.853 144.423,54.982 144.509,55.123 C144.616,55.279 144.671,55.471 144.671,55.695 L144.671,57.291 C144.638,57.498 144.583,57.701 144.509,57.857 C144.423,58.004 144.319,58.117 144.182,58.248 C144.044,58.365 143.823,58.425 143.526,58.425 L133.031,58.425 L133.031,66.797 L140.786,66.797 C141.089,66.797 141.313,66.863 141.463,66.986 C141.619,67.111 141.726,67.238 141.812,67.373 C141.919,67.537 141.974,67.73 141.974,67.939 L141.974,69.533 C141.949,69.757 141.895,69.943 141.812,70.107 C141.726,70.244 141.619,70.369 141.481,70.498 C141.35,70.621 141.132,70.673 140.829,70.673 L133.031,70.673 L133.031,79.259 L143.486,79.259 C143.79,79.259 144.013,79.312 144.157,79.437 C144.304,79.558 144.423,79.693 144.509,79.826 C144.616,79.992 144.671,80.179 144.671,80.396 L144.671,81.988 C144.638,82.205 144.583,82.398 144.509,82.558 C144.423,82.695 144.319,82.834 144.182,82.949 C144.044,83.072 143.823,83.132 143.526,83.132 L129.072,83.132 L129.072,54.547 L143.486,54.547" id="Fill-45"></path>
            <path d="M166.345,54.547 C166.645,54.547 166.865,54.611 167.018,54.73 C167.165,54.853 167.281,54.982 167.367,55.123 C167.468,55.279 167.526,55.471 167.526,55.695 L167.526,57.291 C167.496,57.498 167.443,57.701 167.367,57.857 C167.281,58.004 167.171,58.117 167.043,58.248 C166.896,58.365 166.682,58.425 166.381,58.425 L155.893,58.425 L155.893,66.797 L163.65,66.797 C163.947,66.797 164.174,66.863 164.32,66.986 C164.471,67.111 164.587,67.238 164.673,67.373 C164.777,67.537 164.838,67.73 164.838,67.939 L164.838,69.533 C164.805,69.757 164.749,69.943 164.673,70.107 C164.587,70.244 164.477,70.369 164.342,70.498 C164.211,70.621 163.984,70.673 163.693,70.673 L155.893,70.673 L155.893,79.259 L166.345,79.259 C166.645,79.259 166.865,79.312 167.018,79.437 C167.165,79.558 167.281,79.693 167.367,79.826 C167.468,79.992 167.526,80.179 167.526,80.396 L167.526,81.988 C167.496,82.205 167.443,82.398 167.367,82.558 C167.281,82.695 167.171,82.834 167.043,82.949 C166.896,83.072 166.682,83.132 166.381,83.132 L151.934,83.132 L151.934,54.547 L166.345,54.547" id="Fill-46"></path>
            <path d="M326.362,37.089 C326.308,37.27 326.216,37.402 326.1,37.482 C325.962,37.591 325.75,37.644 325.48,37.644 L323.276,37.644 C323.063,37.644 322.823,37.57 322.572,37.402 C322.321,37.24 322.104,36.995 321.92,36.679 L321.917,36.679 L315.516,26.297 L312.659,26.297 L312.659,36.456 C312.659,36.765 312.595,36.992 312.475,37.135 C312.355,37.283 312.221,37.402 312.083,37.482 C311.924,37.591 311.731,37.644 311.514,37.644 L309.879,37.644 C309.637,37.644 309.432,37.591 309.267,37.482 C309.132,37.402 309.006,37.283 308.881,37.135 C308.758,36.992 308.697,36.765 308.697,36.456 L308.697,9.069 L315.883,9.069 C317.407,9.069 318.699,9.256 319.786,9.655 C320.857,10.055 321.745,10.616 322.435,11.354 C323.136,12.079 323.638,12.976 323.95,14.026 C324.266,15.073 324.418,16.258 324.418,17.559 C324.418,19.819 323.996,21.564 323.154,22.807 C322.303,24.047 321.084,24.987 319.474,25.639 L326.185,36.339 C326.335,36.664 326.424,36.921 326.362,37.089 L326.362,37.089 Z M312.659,22.415 L315.883,22.415 C317.518,22.415 318.688,22.01 319.395,21.197 C320.099,20.37 320.457,19.133 320.457,17.477 C320.457,16.549 320.344,15.795 320.126,15.186 C319.915,14.592 319.608,14.116 319.211,13.784 C318.815,13.438 318.335,13.21 317.763,13.096 C317.189,12.964 316.565,12.897 315.883,12.897 L312.659,12.897 L312.659,22.415 L312.659,22.415 Z" id="Fill-47"></path>
            <path d="M238.381,37.089 C238.319,37.27 238.231,37.402 238.114,37.482 C237.974,37.591 237.76,37.644 237.493,37.644 L235.286,37.644 C235.065,37.644 234.836,37.57 234.585,37.402 C234.33,37.24 234.122,36.995 233.933,36.679 L233.927,36.679 L227.521,26.297 L224.665,26.297 L224.665,36.456 C224.665,36.765 224.61,36.992 224.487,37.135 C224.362,37.283 224.23,37.402 224.099,37.482 C223.934,37.591 223.746,37.644 223.526,37.644 L221.892,37.644 C221.644,37.644 221.447,37.591 221.282,37.482 C221.142,37.402 221.019,37.283 220.89,37.135 C220.773,36.992 220.713,36.765 220.713,36.456 L220.713,9.069 L227.896,9.069 C229.417,9.069 230.718,9.256 231.792,9.655 C232.873,10.055 233.755,10.616 234.45,11.354 C235.145,12.079 235.647,12.976 235.966,14.026 C236.271,15.073 236.425,16.258 236.425,17.559 C236.425,19.819 236.009,21.564 235.157,22.807 C234.321,24.047 233.091,24.987 231.489,25.639 L238.191,36.339 C238.345,36.664 238.433,36.921 238.381,37.089 L238.381,37.089 Z M224.665,22.415 L227.896,22.415 C229.523,22.415 230.699,22.01 231.41,21.197 C232.114,20.37 232.466,19.133 232.466,17.477 C232.466,16.549 232.358,15.795 232.142,15.186 C231.924,14.592 231.621,14.116 231.229,13.784 C230.822,13.438 230.341,13.21 229.771,13.096 C229.199,12.964 228.571,12.897 227.896,12.897 L224.665,12.897 L224.665,22.415 L224.665,22.415 Z" id="Fill-48"></path>
            <path d="M71.581,91.035 L64.308,59.84 L96.313,61.071 L71.581,91.035 L71.581,91.035 Z M38.277,71.707 L69.892,91.072 L15.757,81.97 L38.277,71.707 L38.277,71.707 Z M17.373,58.884 L14.581,81 L1.416,45.716 L17.373,58.884 L17.373,58.884 Z M26.196,32.243 L1.869,43.752 L36.508,1.804 L26.196,32.243 L26.196,32.243 Z M53.935,19.237 C53.904,19.228 53.873,19.247 53.843,19.247 L38.038,0.681 L75.978,7.052 L53.935,19.237 L53.935,19.237 Z M70.197,34.956 L76.768,7.771 L96.209,59.892 L70.197,34.956 L70.197,34.956 Z M64.301,59.338 L70.063,35.519 L96.185,60.566 L64.301,59.338 L64.301,59.338 Z M63.842,60.054 L71.036,90.888 L39.098,71.332 L63.842,60.054 L63.842,60.054 Z M19.24,59.167 L62.072,60.037 L38.326,70.859 L19.24,59.167 L19.24,59.167 Z M17.838,59.188 L37.506,71.232 L15.021,81.48 L17.838,59.188 L17.838,59.188 Z M17.471,57.998 L1.452,44.777 L25.865,33.232 L17.471,57.998 L17.471,57.998 Z M51.914,20.906 L18.671,56.8 L26.803,32.785 L51.914,20.906 L51.914,20.906 Z M27.14,31.796 L37.592,0.931 L53.322,19.409 L27.14,31.796 L27.14,31.796 Z M54.229,19.647 L76.339,7.429 L69.781,34.554 L54.229,19.647 L54.229,19.647 Z M63.346,59.062 L18.781,58.156 L53.555,20.606 L63.346,59.062 L63.346,59.062 Z M64.105,58.015 L54.608,20.707 L69.641,35.118 L64.105,58.015 L64.105,58.015 Z M97.079,60.851 L97.079,60.851 L97.079,60.83 C97.079,60.808 97.066,60.796 97.061,60.777 C97.054,60.771 97.061,60.765 97.061,60.756 L76.958,6.841 C76.951,6.826 76.934,6.822 76.927,6.81 C76.915,6.779 76.891,6.764 76.866,6.743 C76.842,6.724 76.823,6.709 76.799,6.697 C76.78,6.694 76.774,6.678 76.762,6.675 L37.444,0.075 C37.433,0.072 37.426,0.081 37.426,0.081 C37.377,0.081 37.353,0.093 37.322,0.105 C37.292,0.115 37.267,0.124 37.242,0.145 C37.23,0.154 37.218,0.151 37.212,0.164 L0.577,44.535 C0.571,44.542 0.571,44.55 0.564,44.56 C0.546,44.59 0.54,44.618 0.534,44.658 C0.534,44.685 0.528,44.716 0.534,44.747 C0.534,44.759 0.528,44.768 0.534,44.774 L14.465,82.129 C14.471,82.142 14.482,82.148 14.482,82.156 C14.501,82.177 14.514,82.191 14.525,82.209 C14.557,82.236 14.581,82.252 14.617,82.267 C14.636,82.269 14.636,82.285 14.654,82.289 L71.41,91.832 C71.422,91.838 71.44,91.838 71.44,91.838 C71.521,91.838 71.575,91.8 71.624,91.756 C71.631,91.748 71.637,91.752 71.643,91.746 L97.023,61.001 C97.036,60.992 97.029,60.973 97.036,60.961 C97.048,60.945 97.048,60.93 97.054,60.909 C97.054,60.894 97.066,60.881 97.072,60.866 C97.072,60.863 97.079,60.857 97.079,60.851 L97.079,60.851 Z" id="Fill-49"></path>
        </g>
    </g>
</svg>